<?xml version="1.0" encoding="UTF-8" standalone="no"?>
<!-- Created with Inkscape (http://www.inkscape.org/) -->

<svg
   width="97.151543mm"
   height="31.712439mm"
   viewBox="0 0 97.151543 31.712439"
   version="1.1"
   id="svg1"
   xml:space="preserve"
   inkscape:export-filename="logo 1.png"
   inkscape:export-xdpi="96"
   inkscape:export-ydpi="96"
   inkscape:version="1.3.1 (1:1.3.1+202311172155+91b66b0783)"
   sodipodi:docname="logo0.svg"
   xmlns:inkscape="http://www.inkscape.org/namespaces/inkscape"
   xmlns:sodipodi="http://sodipodi.sourceforge.net/DTD/sodipodi-0.dtd"
   xmlns="http://www.w3.org/2000/svg"
   xmlns:svg="http://www.w3.org/2000/svg"><sodipodi:namedview
     id="namedview1"
     pagecolor="#ffffff"
     bordercolor="#666666"
     borderopacity="1.0"
     inkscape:showpageshadow="2"
     inkscape:pageopacity="0.0"
     inkscape:pagecheckerboard="0"
     inkscape:deskcolor="#d1d1d1"
     inkscape:document-units="mm"
     inkscape:zoom="0.2236041"
     inkscape:cx="-854.18829"
     inkscape:cy="-585.85689"
     inkscape:window-width="1366"
     inkscape:window-height="700"
     inkscape:window-x="1024"
     inkscape:window-y="32"
     inkscape:window-maximized="1"
     inkscape:current-layer="layer1"
     showguides="true"><sodipodi:guide
       position="-266.90978,382.14656"
       orientation="1,0"
       id="guide20"
       inkscape:locked="false" /><sodipodi:guide
       position="-222.09896,409.24567"
       orientation="0,-1"
       id="guide21"
       inkscape:locked="false" /><sodipodi:guide
       position="-218.33383,379.12461"
       orientation="0,-1"
       id="guide22"
       inkscape:locked="false" /></sodipodi:namedview><defs
     id="defs1"><clipPath
       clipPathUnits="userSpaceOnUse"
       id="clipPath17"><rect
         style="fill:none;stroke:#000000;stroke-width:0.890265"
         id="rect17"
         width="50.149059"
         height="44.700459"
         x="-87.560432"
         y="88.590462"
         ry="0.60488421" /></clipPath><clipPath
       clipPathUnits="userSpaceOnUse"
       id="clipPath18"><rect
         style="fill:none;stroke:#000000;stroke-width:1"
         id="rect19"
         width="46.021156"
         height="31.804426"
         x="-44.509586"
         y="65.742516"
         ry="0.67654103" /></clipPath></defs><g
     inkscape:label="Camada 1"
     inkscape:groupmode="layer"
     id="layer1"
     transform="translate(-100.98721,-139.43828)"><g
       id="g23"
       inkscape:export-filename="5.png"
       inkscape:export-xdpi="96"
       inkscape:export-ydpi="96"
       transform="translate(272.0357,111.89373)"><path
         style="fill:#c66f36;stroke:none"
         d="m -64.262139,72.127315 v -0.52917 c 0.60782,-0.18007 1.208179,-0.38869 1.852487,-0.2899 1.829176,0.28048 10.00312,3.20287 7.52123,-1.82289 -2.626148,-5.31788 -14.832476,-4.70672 -16.570347,1.05446 -1.176591,3.90049 1.373047,6.91556 5.079963,7.79867 1.18916,0.2833 3.867472,0.29553 4.518749,1.56198 0.395906,0.76987 -0.662823,1.37224 -1.316393,1.23064 -0.793055,-0.17181 -1.167088,-1.09194 -1.907001,-1.39927 -1.296966,-0.5387 -6.925082,-0.86374 -6.712369,1.13183 0.707971,6.64188 12.047286,6.69829 15.975438,3.33118 3.536452,-3.03136 1.905778,-8.22525 -1.827174,-10.00783 -2.077522,-0.99207 -4.429752,-1.34903 -6.614583,-2.0597 m 15.741279,-5.79797 c -1.310393,0.82422 -0.660029,4.73009 -0.660029,6.06255 v 18.78542 c 0,0.92725 -0.542271,6.98348 1.253299,6.41573 1.257885,-0.39774 0.598784,-5.80886 0.598784,-6.9449 v -18.78542 c 0,-0.76679 0.426145,-6.55121 -1.192054,-5.53338 m -48.285028,14.00005 v -1.85208 l 6.349998,-0.26459 v -4.23333 h -6.349998 v -1.5875 c 1.40448,0 5.661164,0.70834 6.60723,-0.46098 0.836754,-1.03421 0.271935,-4.07102 0.271935,-5.35985 -3.618719,0 -7.248225,-0.1229 -10.847917,0.21967 -0.94429,0.0899 -2.74251,-0.37713 -3.54452,0.13718 -0.87807,0.56308 -0.42423,3.23341 -0.42423,4.14106 v 11.1125 c 0,0.91838 -0.39866,3.04659 0.61328,3.54452 2.49628,1.22833 7.973522,0.15965 10.763804,0.15965 0.957257,0 2.518867,0.28633 3.355472,-0.27193 0.945347,-0.63083 1.085512,-4.59053 0,-5.12467 -1.645657,-0.80977 -4.968644,-0.15965 -6.795054,-0.15965 m -27.252092,5.55625 c 1.50884,0 6.6905,0.8069 7.66557,-0.42423 0.86709,-1.09478 0.27193,-4.30342 0.27193,-5.66119 1.71107,-0.0142 3.63747,-0.1231 5.29167,-0.57122 4.50124,-1.21937 6.48758,-7.78501 2.6344,-10.93039 -2.75218,-2.24663 -6.99256,-1.46297 -10.30732,-1.46297 -1.1953,0 -4.70193,-0.59463 -5.50888,0.42423 -0.83363,1.05254 -0.31195,3.85061 -0.31195,5.13202 0,4.50294 0.26162,9.00987 0.26458,13.49375 m 34.660424,-19.05 0.424231,5.28432 4.073686,0.27193 -0.260704,9.525 0.268055,3.54452 4.225982,0.42525 3.544519,-0.0486 0.424231,-3.39202 v -10.05416 c 1.050158,0 3.21167,0.4108 4.073685,-0.27193 0.815305,-0.64574 0.787719,-4.64404 -0.189046,-5.12467 -1.239423,-0.60988 -3.58064,-0.15965 -4.942972,-0.15965 h -11.641667 m 59.527165,2.31816 c -3.003152,0.77901 -3.301381,4.33624 -4.943376,6.34347 -1.224529,1.49691 -3.154442,2.05712 -4.284372,3.77379 -1.851259,2.81257 -0.810456,5.49464 -1.491551,8.46666 -0.252294,1.10093 -1.510664,2.32915 -1.417436,3.43571 0.103425,1.22757 1.938367,1.98063 2.880404,2.44862 2.958516,1.46974 7.375422,1.86004 10.571698,0.92746 1.75603,-0.51235 1.516356,-2.91003 2.714022,-4.12778 1.179474,-1.19924 2.960139,-1.38125 4.117368,-2.69544 1.04279,-1.18423 2.178897,-4.2578 0.890724,-5.65077 -0.711495,-0.76938 -2.046976,-0.54298 -2.837326,-1.32782 -0.760774,-0.75547 -0.965187,-1.91891 -1.642423,-2.75056 -0.634376,-0.77902 -1.63786,-1.06956 -2.277332,-1.80432 -1.022386,-1.17472 0.54647,-7.77229 -2.2804,-7.03902 m 17.466586,12.23392 h 0.264584 c -0.606787,2.1226 -1.727269,5.74221 -3.708253,6.94327 -0.988086,0.59908 -1.649447,-0.0945 -2.641748,-0.002 -0.81589,0.0764 -1.41465,0.82643 -2.116667,1.18042 -1.341722,0.67656 -5.190106,0.95282 -4.873152,3.21584 0.151792,1.08375 1.738969,0.84937 2.491902,0.75721 2.450214,-0.29994 4.789962,-0.57371 6.879167,-1.95295 1.582866,-1.04496 3.723159,-1.95896 4.842123,-3.53819 2.300676,-3.24701 2.690187,-7.53311 5.592997,-10.4933 1.786446,-1.82175 6.02866169,-2.88979 6.7627981,-5.37108 -2.01369331,-1.02908 -4.8337005,-2.70676 -7.1437501,-2.63011 -1.689294,0.056 -2.729444,1.44238 -3.96875,2.4133 -3.141985,2.46154 -4.538904,3.10596 -5.66956,7.09598 -0.506017,1.7857 -3.832744,7.00249 -1.88862,8.52423 2.199341,1.72152 4.543852,-4.78703 5.176929,-6.14298 m -104.510425,-6.08542 0.26459,-4.23333 c 4.25259,0.0357 3.77512,4.19944 -0.26459,4.23333 m 88.939,4.39808 c 1.528128,-0.59404 2.475753,1.73502 0.98035,2.31634 -1.528113,0.59403 -2.475753,-1.73501 -0.98035,-2.31634 m 16.012395,1.33456 -0.08819,0.17639 0.08819,-0.17639 m -44.361804,10.14277 c -0.143984,2.22167 -0.669622,4.95164 2.38125,5.29167 v -1.05833 c -1.02719,-0.31158 -1.243392,-0.80649 -1.322917,-1.85209 h 1.322917 v -0.79375 h -1.322917 v -1.5875 h -1.058333 m -32.808334,4.7625 v -0.52916 l -0.264583,-0.26459 -1.322917,0.26459 1.5875,-2.38125 c -4.151608,-1.986 -4.151604,4.8964 0,2.91041 m 7.672917,0 c -0.579628,-0.55728 -1.6999,-0.4032 -2.124426,-0.96238 -0.771836,-1.01665 0.79352,-1.09914 1.330676,-0.8897 h 0.264583 l 0.529167,-0.52917 c -2.924688,-3.31376 -4.951281,3.23473 -1.329247,2.83019 0.474297,-0.053 0.896675,-0.26593 1.329247,-0.44894 m 7.672917,0 v -0.52916 l -0.264584,-0.26459 -1.322916,0.26459 1.5875,-2.38125 c -4.108709,-1.96548 -4.108709,4.87588 0,2.91041 m 6.35,0.52917 v -3.70417 c -0.852617,0.016 -1.809931,-0.38053 -2.631542,-0.0641 -1.457392,0.56128 -1.605797,2.69125 -0.243557,3.45531 0.88038,0.49378 1.933913,0.0189 2.875099,0.31296 m 2.645833,-3.70417 v 5.02709 h 1.058334 v -1.5875 c 1.831598,0.51981 3.984971,-1.34984 2.266512,-3.06006 -0.894875,-0.8906 -2.218801,-0.36133 -3.324846,-0.37953 m 7.672917,3.175 v -0.52916 l -0.264583,-0.26459 -1.322917,0.26459 1.5875,-2.38125 c -4.108713,-1.96548 -4.108721,4.87589 0,2.91041 m -38.099999,-3.175 v 3.70417 h 0.79375 c 0.005,-1.42018 0.0751,-2.47168 1.587498,-2.91042 v -0.79375 h -2.381248 m 8.995832,2.38125 v 0.26459 h -2.38125 v 1.05833 c 0.789737,-9e-5 1.882043,0.17235 2.581318,-0.27193 1.89856,-1.20625 -0.797032,-2.09761 -1.787568,-2.10932 v -0.26462 l 2.38125,-0.26459 v -0.79375 c -0.772038,9e-5 -1.886137,-0.18148 -2.56152,0.27194 -1.796079,1.20579 0.814675,2.08626 1.76777,2.10931 m 5.291667,-2.38125 c 0,2.85912 0.388082,3.39072 3.175,3.70417 v -3.70417 h -0.79375 c -0.02454,2.7111 -1.577896,2.72103 -1.5875,0 h -0.79375 m -9.525001,0.79375 -0.79375,1.32292 c -0.260134,-0.79067 0.03967,-1.07495 0.79375,-1.32292 m 15.345834,0 -1.058333,1.32292 0.264583,-1.32292 h 0.79375 m 5.401503,0.17517 c 0.99937,-0.41374 1.531254,1.15048 0.604703,1.56912 -0.98943,0.44706 -1.550175,-1.1777 -0.604703,-1.56912 m 6.614584,0 c 0.999366,-0.41374 1.531261,1.15048 0.604703,1.56912 -0.989442,0.44706 -1.550172,-1.1777 -0.604703,-1.56912 m 4.652663,-0.17517 -1.058333,1.32292 z"
         id="path17"
         clip-path="url(#clipPath18)"
         transform="translate(-74.986895,-38.289953)" /><g
         id="g22"><text
           xml:space="preserve"
           style="font-style:normal;font-weight:normal;font-size:10.5833px;line-height:1.25;font-family:sans-serif;letter-spacing:0px;word-spacing:0px;fill:#c66f36;fill-opacity:1;stroke:none;stroke-width:0.264583"
           x="-171.88048"
           y="35.194744"
           id="text19"><tspan
             sodipodi:role="line"
             id="tspan19"
             x="-171.88048"
             y="35.194744"
             style="font-style:normal;font-variant:normal;font-weight:normal;font-stretch:normal;font-family:Arial;-inkscape-font-specification:Arial;fill:#c66f36;fill-opacity:1;stroke-width:0.264583">Resgate um</tspan></text><text
           xml:space="preserve"
           style="font-style:normal;font-weight:normal;font-size:23.0895px;line-height:1.25;font-family:sans-serif;letter-spacing:0px;word-spacing:0px;fill:#c66f36;fill-opacity:1;stroke:none;stroke-width:0.577239"
           x="-169.24713"
           y="55.53616"
           id="text20"><tspan
             sodipodi:role="line"
             id="tspan20"
             x="-169.24713"
             y="55.53616"
             style="font-style:normal;font-variant:normal;font-weight:normal;font-stretch:normal;font-family:'Arial Black';-inkscape-font-specification:'Arial Black, ';fill:#c66f36;fill-opacity:1;stroke-width:0.577239">PET</tspan></text></g></g></g></svg>
